<svg xmlns="http://www.w3.org/2000/svg" width="21" height="22" viewBox="0 0 21 22">
  <metadata><?xpacket begin="﻿" id="W5M0MpCehiHzreSzNTczkc9d"?>
<x:xmpmeta xmlns:x="adobe:ns:meta/" x:xmptk="Adobe XMP Core 5.6-c138 79.159824, 2016/09/14-01:09:01        ">
   <rdf:RDF xmlns:rdf="http://www.w3.org/1999/02/22-rdf-syntax-ns#">
      <rdf:Description rdf:about=""/>
   </rdf:RDF>
</x:xmpmeta>
                                                                                                    
                                                                                                    
                                                                                                    
                                                                                                    
                                                                                                    
                                                                                                    
                                                                                                    
                                                                                                    
                                                                                                    
                                                                                                    
                                                                                                    
                                                                                                    
                                                                                                    
                                                                                                    
                                                                                                    
                                                                                                    
                                                                                                    
                                                                                                    
                                                                                                    
                                                                                                    
                           
<?xpacket end="w"?></metadata>
<defs>
    <style>
      .cls-1 {
        fill: #fff;
        fill-rule: evenodd;
      }
    </style>
  </defs>
  <path id="g_plus" data-name="g plus" class="cls-1" d="M1235.18,2573.6v1.47h3.54v3.67h1.41v-3.67h3.54v-1.47h-3.54v-3.67h-1.41v3.67h-3.54Zm0.95-9.34h-5.55a7.043,7.043,0,0,0-4.83,1.58,5.339,5.339,0,0,0-1.72,3.87,4.414,4.414,0,0,0,4.47,4.54c0.27,0,.57-0.03.87-0.06a2.6,2.6,0,0,0-.28,1.12,3.182,3.182,0,0,0,.81,1.97,10.963,10.963,0,0,0-5.15,1.32,4.239,4.239,0,0,0-2.08,3.53c0,2.13,1.89,4.13,5.8,4.13,4.64,0,7.1-2.75,7.1-5.46,0-1.99-1.08-2.98-2.27-4.04l-0.97-.81a1.6,1.6,0,0,1-.7-1.24,2.074,2.074,0,0,1,.75-1.42,4.877,4.877,0,0,0,.35-8h1.68Zm-2.37,17.66c0,1.79-1.38,3.12-3.96,3.12-2.89,0-4.75-1.47-4.75-3.52a3.173,3.173,0,0,1,2.32-2.97,10.013,10.013,0,0,1,2.83-.47,3.959,3.959,0,0,1,.62.03C1232.87,2579.67,1233.76,2580.45,1233.76,2581.92Zm-2.16-9.29a2.675,2.675,0,0,1-1.83.81c-2.32,0-3.37-3.21-3.37-5.14a3.507,3.507,0,0,1,.59-2.14,2.452,2.452,0,0,1,1.89-.95c2.24,0,3.4,3.23,3.4,5.31A3.077,3.077,0,0,1,1231.6,2572.63Z" transform="translate(-1222.69 -2564.25)"/>
</svg>
