<svg xmlns="http://www.w3.org/2000/svg" width="16" height="22" viewBox="0 0 16 22">
  <metadata><?xpacket begin="﻿" id="W5M0MpCehiHzreSzNTczkc9d"?>
<x:xmpmeta xmlns:x="adobe:ns:meta/" x:xmptk="Adobe XMP Core 5.6-c138 79.159824, 2016/09/14-01:09:01        ">
   <rdf:RDF xmlns:rdf="http://www.w3.org/1999/02/22-rdf-syntax-ns#">
      <rdf:Description rdf:about=""/>
   </rdf:RDF>
</x:xmpmeta>
                                                                                                    
                                                                                                    
                                                                                                    
                                                                                                    
                                                                                                    
                                                                                                    
                                                                                                    
                                                                                                    
                                                                                                    
                                                                                                    
                                                                                                    
                                                                                                    
                                                                                                    
                                                                                                    
                                                                                                    
                                                                                                    
                                                                                                    
                                                                                                    
                                                                                                    
                                                                                                    
                           
<?xpacket end="w"?></metadata>
<defs>
    <style>
      .cls-1 {
        fill: #fff;
        fill-rule: evenodd;
      }
    </style>
  </defs>
  <path id="twetter" class="cls-1" d="M1283.56,2580.5h-5.3a2.523,2.523,0,0,1-1.88-.79,2.678,2.678,0,0,1-.77-1.94v-1.93h7.55a2.367,2.367,0,0,0,1.76-.75,2.584,2.584,0,0,0,0-3.6,2.383,2.383,0,0,0-1.76-.75h-7.55v-3.99a2.713,2.713,0,0,0-.79-1.94,2.521,2.521,0,0,0-1.88-.81,2.583,2.583,0,0,0-1.91.8,2.662,2.662,0,0,0-.78,1.95v11.03a8.024,8.024,0,0,0,2.35,5.81,7.592,7.592,0,0,0,5.66,2.41h5.31a2.558,2.558,0,0,0,1.89-.81,2.777,2.777,0,0,0,0-3.88A2.564,2.564,0,0,0,1283.56,2580.5Z" transform="translate(-1270.25 -2564)"/>
</svg>
